<svg id="圖層_1" data-name="圖層 1" xmlns="http://www.w3.org/2000/svg" viewBox="0 0 474.1 80.59"><defs><style>.cls-1{fill:#b44f4a;}.cls-2{fill:#64abbb;}.cls-2,.cls-3,.cls-5,.cls-6{stroke:#221714;stroke-miterlimit:10;}.cls-3{fill:#fff;}.cls-4{fill:#573f77;}.cls-5{fill:#d5d53c;}.cls-6{fill:none;}.cls-7{fill:#040000;}</style></defs><path class="cls-1" d="M41.27,10.76C31.07,14.23,19.37,21.83,2.9,31.91c.09-.37.17-.74.27-1.1s.23-.67.34-1,.28-.76.44-1.13c3.46-7.93,12.87-12.91,17.37-15.63,10.75-6.5,18.92-7.91,26.37-7.91A37.26,37.26,0,0,1,60.81,7.71a.62.62,0,0,1,.22.17C60.72,7.46,51.36,7.32,41.27,10.76Z" transform="translate(-0.76 -0.83)"/><path class="cls-2" d="M61.46,65.45S40.81,62.08,41.27,48.21c.08-1.82,2.58,2,9.6,5,3.85,1.66,10.61,2.89,10.59,2.45V48.33l9.84-.12a124.53,124.53,0,0,0-1-13.7s8.44-3.74,8.44-14.58c0-9.79-14.13-11.68-16.92-12-2.69-3.7-6.14-6.22-10.56-6.59,11.65-.36,23,1.51,33.51,7.37C104.51,19.76,107,44.67,90,59.54c-2.23,2-4.68,3.64-7,5.43,3,7,4.7,8.51,15.77,13.93-3.25.46-6,.94-8.84,1.23-9.31,1-18.6,2-27.3-3a2.94,2.94,0,0,0-1.18-.32h0Z" transform="translate(-0.76 -0.83)"/><path class="cls-3" d="M66.57,17.61a37.38,37.38,0,0,0-4.67-9.5h0C63.75,10,65.37,14,66.57,17.61Z" transform="translate(-0.76 -0.83)"/><path class="cls-3" d="M1.48,48a.49.49,0,0,1,0-.12l.09.75C1.53,48.45,1.5,48.24,1.48,48Z" transform="translate(-0.76 -0.83)"/><path class="cls-3" d="M4,28.68c-.16.37-.3.75-.44,1.13-.27.71-.52,1.44-.75,2.18,2.4-8.47,7.68-15.65,16.09-21.28a53.26,53.26,0,0,1,19.58-8C24.24,6,9.79,14.93,4,28.68Z" transform="translate(-0.76 -0.83)"/><path class="cls-3" d="M53.7,77.36a94.58,94.58,0,0,1-18.13-.42A111.41,111.41,0,0,0,53.7,77.36Z" transform="translate(-0.76 -0.83)"/><path class="cls-3" d="M3.65,56.69A28.29,28.29,0,0,0,6.2,61.83a28.93,28.93,0,0,1-4.63-13,30.52,30.52,0,0,0,2.06,7.9Z" transform="translate(-0.76 -0.83)"/><path class="cls-4" d="M70.43,18.63c0-5.39-8.53-10.52-8.53-10.52,2.38.79,11.36,4.21,12.31,10.82S70,30.13,69.68,30.38c-.28-1.65-.6-3.34-1-5,.05.23.08.35.08.35S70.43,24,70.43,18.63Z" transform="translate(-0.76 -0.83)"/><path class="cls-3" d="M1.32,45.59c-.05-1-.06-1.94-.05-2.89,0,.39,0,.78,0,1.16C1.29,44.45,1.3,45,1.32,45.59Z" transform="translate(-0.76 -0.83)"/><path class="cls-3" d="M1.27,42.7c0-.22,0-.42,0-.64,0-1.15.07-2.26.17-3.37,0,.48,0,1-.06,1.54C1.32,41,1.28,41.86,1.27,42.7Z" transform="translate(-0.76 -0.83)"/><path class="cls-3" d="M61.46,76.78c-2.69.26-5.27.45-7.76.58Q56,77.21,58.32,77A17.59,17.59,0,0,1,61.46,76.78Z" transform="translate(-0.76 -0.83)"/><path class="cls-3" d="M2.75,32v0Z" transform="translate(-0.76 -0.83)"/><path class="cls-3" d="M19.94,72.76a58,58,0,0,0,15.63,4.18C20.93,75.27,11.41,70.11,6.2,61.83A30.9,30.9,0,0,0,19.94,72.76Z" transform="translate(-0.76 -0.83)"/><path class="cls-3" d="M38.43,2.72A52.83,52.83,0,0,1,50.11,1.33c.39,0,.76,0,1.13,0q-3.59.12-7.2.49C42.15,2.06,40.28,2.36,38.43,2.72Z" transform="translate(-0.76 -0.83)"/><path class="cls-3" d="M1.37,40.23c0,.55,0,1.13,0,1.75s-.05,1.26-.06,1.88c0-.38,0-.77,0-1.16C1.28,41.86,1.32,41,1.37,40.23Z" transform="translate(-0.76 -0.83)"/><path class="cls-3" d="M3.17,30.81c-.1.36-.18.73-.27,1.1L2.78,32l0,0v0c.23-.74.48-1.47.75-2.18C3.4,30.14,3.27,30.47,3.17,30.81Z" transform="translate(-0.76 -0.83)"/><path class="cls-5" d="M61.8,8l-.48,0A36.88,36.88,0,0,0,47.69,5.14c-7.45,0-15.62,1.41-26.37,7.91C16.82,15.77,7.41,20.75,4,28.68,9.79,14.93,24.24,6,38.43,2.72c1.85-.36,3.72-.66,5.61-.85q3.62-.37,7.2-.49C55.66,1.75,59.11,4.27,61.8,8Z" transform="translate(-0.76 -0.83)"/><path class="cls-3" d="M49,25.28C58.16,16.49,61.32,7.93,61.32,7.93l.58.18a37.38,37.38,0,0,1,4.67,9.5c1.14,3.47,1.9,6.7,2.14,7.73.37,1.7.69,3.39,1,5l0,0,.63,4.1h0a124.53,124.53,0,0,1,1,13.7l-9.84.12v7.34c0,.44-6.74-.79-10.59-2.45-7-3-9.52-6.83-9.6-5-.46,13.87,20.19,17.24,20.19,17.24V76.78h0a17.59,17.59,0,0,0-3.14.22q-2.31.21-4.62.36a111.41,111.41,0,0,1-18.13-.42,58,58,0,0,1-15.63-4.18A30.9,30.9,0,0,1,6.2,61.83a28.29,28.29,0,0,1-2.55-5.14C4.07,56.52,25.63,47.67,49,25.28Z" transform="translate(-0.76 -0.83)"/><path class="cls-3" d="M1.32,45.59c0,.77.08,1.54.15,2.32,0,0,0-.08,0-.12C1.39,47.08,1.35,46.35,1.32,45.59Z" transform="translate(-0.76 -0.83)"/><path class="cls-3" d="M1.56,48.66c0,.05,0,.09,0,.14S1.56,48.71,1.56,48.66Z" transform="translate(-0.76 -0.83)"/><path class="cls-3" d="M1.29,43.86A40.12,40.12,0,0,0,3.65,56.69h0a30.52,30.52,0,0,1-2.06-7.9s0-.09,0-.14l-.09-.75c-.07-.78-.11-1.55-.15-2.32C1.3,45,1.29,44.45,1.29,43.86Z" transform="translate(-0.76 -0.83)"/><path class="cls-3" d="M4,28.68c-.16.37-.29.75-.44,1.13C3.65,29.43,3.79,29.05,4,28.68Z" transform="translate(-0.76 -0.83)"/><polygon class="cls-5" points="60.27 7.05 60.27 7.05 60.27 7.05 60.27 7.05"/><path class="cls-5" d="M1.45,45.76,33,23.71S61.32,8.3,61,7.88a.54.54,0,0,1,.08.56A53.34,53.34,0,0,1,49,25.28C25.63,47.67,4.07,56.52,3.65,56.69A31.69,31.69,0,0,1,1.36,45.25Z" transform="translate(-0.76 -0.83)"/><path class="cls-3" d="M2.75,32a34.16,34.16,0,0,0-1.32,6.66C1.71,33.81,2.57,32.29,2.75,32Z" transform="translate(-0.76 -0.83)"/><path class="cls-3" d="M1.37,40.23c0-.55,0-1.06.06-1.54A34.16,34.16,0,0,1,2.75,32h0A40.59,40.59,0,0,0,1.37,40.23Z" transform="translate(-0.76 -0.83)"/><path class="cls-3" d="M1.37,40.23A40.59,40.59,0,0,1,2.75,32l0,0,.12-.07A52.84,52.84,0,0,0,1.35,42C1.35,41.36,1.36,40.78,1.37,40.23Z" transform="translate(-0.76 -0.83)"/><path class="cls-5" d="M60.07,8A144.86,144.86,0,0,1,41.26,22.3C21,35.44,1.45,45.76,1.45,45.76c-.07-1.39-.09-2.65-.1-3.78A52.84,52.84,0,0,1,2.9,31.91C19.37,21.83,31.69,14,41.89,10.55A47,47,0,0,1,60.07,8Z" transform="translate(-0.76 -0.83)"/><path class="cls-5" d="M78.72,19.93c0,10.84-8.43,14.58-8.44,14.58-.17-1.33-.37-2.71-.6-4.13.3-.25,5.5-4.72,4.53-11.45S64.28,8.9,61.9,8.11h0L61.8,8C64.59,8.25,78.72,10.14,78.72,19.93Z" transform="translate(-0.76 -0.83)"/><path class="cls-3" d="M70.28,34.51l-.63-4.1,0,0c.23,1.42.43,2.8.6,4.13Z" transform="translate(-0.76 -0.83)"/><path class="cls-5" d="M70.43,18.63c0,5.39-1.64,7.06-1.64,7.06s0-.12-.08-.35a71.73,71.73,0,0,0-2.14-7.73,62.25,62.25,0,0,0-4.67-9.5C61.8,8,70.43,13.24,70.43,18.63Z" transform="translate(-0.76 -0.83)"/><path class="cls-3" d="M66.57,17.61a71.73,71.73,0,0,1,2.14,7.73C68.47,24.31,67.71,21.08,66.57,17.61Z" transform="translate(-0.76 -0.83)"/><path class="cls-3" d="M60.72,21.48" transform="translate(-0.76 -0.83)"/><path class="cls-3" d="M58.64,33.65c0,4.13-9.18,4.4-9.18,0" transform="translate(-0.76 -0.83)"/><path class="cls-6" d="M54.91,28.73c0-1.9,2.89-3.4,6.41-3.35" transform="translate(-0.76 -0.83)"/><path class="cls-7" d="M160.72,48.75a14.34,14.34,0,0,1-1,5.53,12.42,12.42,0,0,1-2.92,4.31,13.84,13.84,0,0,1-4.4,2.91,16.73,16.73,0,0,1-5.53,1.24,13,13,0,0,1-6.05-.9,11.57,11.57,0,0,1-4.35-3.22,14.23,14.23,0,0,1-2.71-5,22.22,22.22,0,0,1-1-6.3l5.16-.56a17.12,17.12,0,0,0,.25,3.88,11.29,11.29,0,0,0,.94,2.86,7.12,7.12,0,0,0,1.39,2,8.63,8.63,0,0,0,1.66,1.27,9.08,9.08,0,0,0,4.59,1.12,11,11,0,0,0,3.35-.73,8,8,0,0,0,2.44-1.46,8.16,8.16,0,0,0,1.66-2,12.36,12.36,0,0,0,1-2.42,15.63,15.63,0,0,0,.51-2.66,25,25,0,0,0,.15-2.73c0-.47,0-1,0-1.57s0-1.18,0-1.85c-.05-1.32-.1-2.7-.15-4.15s-.11-2.89-.19-4.32c0-.72-.07-1.4-.11-2s-.08-1.25-.11-1.82-.07-1.07-.12-1.66S155,27.36,155,27s-.08-.61-.13-.61l5.3-.1a7,7,0,0,1,.12,1.17c0,.77.07,1.77.11,3s.08,2.66.13,4.26c0,.8,0,1.6,0,2.42s0,1.63.05,2.46c0,1.68.06,3.31.07,4.91S160.72,47.5,160.72,48.75Z" transform="translate(-0.76 -0.83)"/><path class="cls-7" d="M195.17,55.59a9.06,9.06,0,0,1-1,3,8.75,8.75,0,0,1-1.8,2.31,10.81,10.81,0,0,1-2.4,1.66,16.91,16.91,0,0,1-2.78,1.08,18.82,18.82,0,0,1-2.95.6,24,24,0,0,1-2.86.18,17.14,17.14,0,0,1-3.71-.4,22.9,22.9,0,0,1-3.59-1.11,28.48,28.48,0,0,1-3.5-1.74c-1.15-.66-2.28-1.4-3.41-2.19l3.57-4.2a19,19,0,0,0,3.77,2.65,23.47,23.47,0,0,0,3.36,1.45,14.68,14.68,0,0,0,3.32.78,11.28,11.28,0,0,0,3.28-.28,9.53,9.53,0,0,0,2.65-1.06,5,5,0,0,0,2.61-3.69,3,3,0,0,0-.32-1.66,5.87,5.87,0,0,0-2.93-2.47c-.34-.16-.69-.31-1.06-.45s-.74-.27-1.11-.4c-.78-.24-1.58-.46-2.4-.65s-1.62-.34-2.38-.47c-.93-.18-1.91-.4-2.93-.66a22.22,22.22,0,0,1-3-1.06,14.9,14.9,0,0,1-2.81-1.63,9.83,9.83,0,0,1-2.27-2.37,10.08,10.08,0,0,1-1.48-3.19,12.74,12.74,0,0,1-.33-4.2,10.89,10.89,0,0,1,5-8.5,15.12,15.12,0,0,1,2.93-1.46,15.52,15.52,0,0,1,3.23-.85,20.92,20.92,0,0,1,3.34-.23,22.55,22.55,0,0,1,4.61.71,25.5,25.5,0,0,1,4.36,1.59,15.17,15.17,0,0,1,4.11,2.83l-2.73,4.32a11.66,11.66,0,0,0-3.32-2.63,19.2,19.2,0,0,0-3.54-1.45A16.46,16.46,0,0,0,181,29.2a11,11,0,0,0-3.95.66,8.68,8.68,0,0,0-2.91,1.73A7.32,7.32,0,0,0,172.35,34a6.09,6.09,0,0,0-.62,2.58,4.48,4.48,0,0,0,.74,2.42,8,8,0,0,0,2.07,2.13,15.11,15.11,0,0,0,6.93,2.56c.6.06,1.2.15,1.78.26s1.18.23,1.78.37a23.65,23.65,0,0,1,3.39,1.13,15.31,15.31,0,0,1,3,1.63,10.66,10.66,0,0,1,2.27,2.22A8.73,8.73,0,0,1,195,52.11,8.87,8.87,0,0,1,195.17,55.59Z" transform="translate(-0.76 -0.83)"/><path class="cls-7" d="M228.47,52.19,232.42,55A18.2,18.2,0,0,1,226,60.69a19.28,19.28,0,0,1-4.09,1.59,18.4,18.4,0,0,1-9.39-.1,18.34,18.34,0,0,1-8.15-4.88,18.7,18.7,0,0,1-2.88-3.81A19.37,19.37,0,0,1,199.63,49a19.5,19.5,0,0,1,0-10.06,18.75,18.75,0,0,1,4.74-8.35,19.7,19.7,0,0,1,3.74-2.95,18.63,18.63,0,0,1,4.41-1.89,17.85,17.85,0,0,1,4.91-.67,17.84,17.84,0,0,1,8.06,1.88A17.89,17.89,0,0,1,231.76,32L228,35.06a14,14,0,0,0-4.63-3.76,12.87,12.87,0,0,0-6-1.4,12.63,12.63,0,0,0-5.3,1.12,14.18,14.18,0,0,0,0,25.87,13.31,13.31,0,0,0,8.6.7,14,14,0,0,0,3-1.17A13.51,13.51,0,0,0,228.47,52.19Z" transform="translate(-0.76 -0.83)"/><path class="cls-7" d="M260.16,58.4l21.6-1.69.25,5.2L255.4,63.74l-.15-37.13,5.05-.27Z" transform="translate(-0.76 -0.83)"/><path class="cls-7" d="M298.32,59.1a8.42,8.42,0,0,0,5-1.62A7.47,7.47,0,0,0,306.25,53l4.71.95a14.44,14.44,0,0,1-1.93,4,13.85,13.85,0,0,1-2.9,3.1,13.12,13.12,0,0,1-3.65,2,12.17,12.17,0,0,1-4.16.71,15.62,15.62,0,0,1-5.72-1A11.69,11.69,0,0,1,288.4,60q-3.48-3.65-3.49-9.92a15.56,15.56,0,0,1,1-5.7,14.54,14.54,0,0,1,2.84-4.6A13.22,13.22,0,0,1,293,36.72a12.48,12.48,0,0,1,5.28-1.13,11.73,11.73,0,0,1,4.78,1,13.1,13.1,0,0,1,4,2.72,15,15,0,0,1,2.86,4.13,15.85,15.85,0,0,1,1.41,5.13l-21.14,3.15a8.58,8.58,0,0,0,.87,3.11,7.77,7.77,0,0,0,1.74,2.33A7.92,7.92,0,0,0,298.32,59.1Zm-8-11.91,14.69-1.78-.14-.47a9.09,9.09,0,0,0-2.55-3.78,6.08,6.08,0,0,0-4-1.37,8,8,0,0,0-2.25.36,7.58,7.58,0,0,0-2.37,1.2,8.7,8.7,0,0,0-2.06,2.29A9.41,9.41,0,0,0,290.36,47.19Z" transform="translate(-0.76 -0.83)"/><path class="cls-7" d="M340,63.69l-4.79-.8.35-3.44a23.66,23.66,0,0,1-5.85,2.75,18.83,18.83,0,0,1-5.36.86,12.92,12.92,0,0,1-3.41-.45,8.21,8.21,0,0,1-2.89-1.41,6.74,6.74,0,0,1-2-2.38,7.26,7.26,0,0,1-.77-3.43,10,10,0,0,1,.59-3.54,9.23,9.23,0,0,1,1.61-2.76A10.24,10.24,0,0,1,319.9,47a14.66,14.66,0,0,1,3-1.39,18.62,18.62,0,0,1,3.35-.79,24.22,24.22,0,0,1,3.49-.26q1.61,0,3,.12c.93.09,1.75.19,2.47.32A17,17,0,0,0,334,41.79a7.11,7.11,0,0,0-1.95-2.45A4.92,4.92,0,0,0,329,38.4a9.71,9.71,0,0,0-2.18.28,12.71,12.71,0,0,0-2.68,1,21.43,21.43,0,0,0-3.2,2A32.13,32.13,0,0,0,317.19,45l-3-3.59a33.11,33.11,0,0,1,4.5-3.59,26.45,26.45,0,0,1,4-2.19,17.49,17.49,0,0,1,3.5-1.08,17.12,17.12,0,0,1,2.92-.29,9.74,9.74,0,0,1,7.1,2.84,11.8,11.8,0,0,1,2.25,3.14A21.84,21.84,0,0,1,340,44.09a27,27,0,0,1,.84,4.3,38.63,38.63,0,0,1,.26,4.41,50.33,50.33,0,0,1-.27,5C340.69,59.62,340.41,61.58,340,63.69ZM335.94,54c0-.81.05-1.62.07-2.42a17.87,17.87,0,0,0-.12-2.49,19.33,19.33,0,0,0-2.52-.58,15.47,15.47,0,0,0-2.63-.22,17.62,17.62,0,0,0-4.26.51,11.53,11.53,0,0,0-3.56,1.49,6.5,6.5,0,0,0-2.23,2.39,4.42,4.42,0,0,0-.3,3.23A3,3,0,0,0,321.72,58a4.59,4.59,0,0,0,2.38.58,12.48,12.48,0,0,0,4-.77,31.27,31.27,0,0,0,4.33-1.84C333.88,55.21,335,54.57,335.94,54Z" transform="translate(-0.76 -0.83)"/><path class="cls-7" d="M370.65,45.8l-4.81,1.8a8.76,8.76,0,0,0-.57-3.36,4.56,4.56,0,0,0-1.45-2,2.89,2.89,0,0,0-1.93-.58,4.05,4.05,0,0,0-1.44.56,9.44,9.44,0,0,0-1.57,1.22,20.13,20.13,0,0,0-1.63,1.68c-.28.31-.54.63-.8,1s-.53.65-.79,1c-.5.65-1,1.31-1.44,2s-.86,1.25-1.22,1.79c0,.67,0,1.43.05,2.28s0,1.7.06,2.52.05,1.52.06,2.09c0,1,.07,1.95.1,2.77s.07,1.48.12,2l-5.25.66-.48-13.7c0-.93-.07-1.92-.1-3s-.07-2.08-.1-3-.06-1.7-.07-2.26c-.07-2.29-.12-4-.15-5.17l5.57-.1c0,.51,0,1,0,1.5s0,1,0,1.53v1.5c0,.48,0,.93,0,1.35s0,1,0,1.51v1.45c.47-.75,1-1.57,1.73-2.47a21.8,21.8,0,0,1,2.29-2.54,16.74,16.74,0,0,1,2.81-2.08A8.39,8.39,0,0,1,363,36.54a6.49,6.49,0,0,1,3.56.84,6.87,6.87,0,0,1,1.36,1,7.76,7.76,0,0,1,1.26,1.65,11.51,11.51,0,0,1,.95,2.43A17,17,0,0,1,370.65,45.8Z" transform="translate(-0.76 -0.83)"/><path class="cls-7" d="M380.64,62.5l-5.25.66-.49-13.7c0-.93-.06-1.92-.1-3s-.06-2.08-.09-3-.06-1.7-.08-2.26c-.06-2.29-.11-4-.14-5.17l5.56-.1.1,7A19.18,19.18,0,0,1,382,40.32a16.37,16.37,0,0,1,2.22-2.19,11.39,11.39,0,0,1,2.56-1.54,9.33,9.33,0,0,1,6.09-.36,7.2,7.2,0,0,1,2.34,1.21,6.46,6.46,0,0,1,1.61,1.84,10,10,0,0,1,1,2.2,13.09,13.09,0,0,1,.53,2.25q.15,1.14.21,2.07c.09,2.8.12,5.61.07,8.45s-.11,5.77-.17,8.81l-5-.17q.19-3.93.36-7.86t0-7.94a11.51,11.51,0,0,0-.2-2,8.85,8.85,0,0,0-.7-2.21,4.81,4.81,0,0,0-1-1.35,3.83,3.83,0,0,0-3.39-1q-1.94.28-3.91,2.81a38.71,38.71,0,0,0-4.29,7.39l.17,6.25c0,.78,0,1.47,0,2.05s0,1.09.05,1.49C380.6,61.54,380.62,62.17,380.64,62.5Z" transform="translate(-0.76 -0.83)"/><path class="cls-7" d="M412.21,28.81a3.26,3.26,0,0,1-1,2.42,3.41,3.41,0,0,1-2.48,1,3.47,3.47,0,0,1-3.44-3.44,3.44,3.44,0,0,1,1-2.48,3.3,3.3,0,0,1,2.43-1,3.55,3.55,0,0,1,3.52,3.52ZM406,37.59l5.05-.19-.24,11.72q-.13,4.83-.15,7.59c-.05,2.25-.07,4-.07,5.3h-5c0-.88,0-1.84.06-2.89s.05-2.18.06-3.39c0-2.1.08-4.64.15-7.64Z" transform="translate(-0.76 -0.83)"/><path class="cls-7" d="M424.05,62.5l-5.25.66-.49-13.7c0-.93-.06-1.92-.1-3s-.06-2.08-.09-3-.06-1.7-.08-2.26c-.06-2.29-.11-4-.14-5.17l5.56-.1.1,7a19.18,19.18,0,0,1,1.83-2.62,15.3,15.3,0,0,1,2.22-2.19,11.55,11.55,0,0,1,2.55-1.54,9.36,9.36,0,0,1,6.1-.36,7.2,7.2,0,0,1,2.34,1.21,6.46,6.46,0,0,1,1.61,1.84,10,10,0,0,1,1,2.2,13.09,13.09,0,0,1,.53,2.25c.1.76.17,1.45.2,2.07.1,2.8.13,5.61.08,8.45s-.11,5.77-.17,8.81l-5-.17Q437,59,437.2,55t0-7.94a11.51,11.51,0,0,0-.2-2,8.85,8.85,0,0,0-.7-2.21,5,5,0,0,0-1-1.35,3.83,3.83,0,0,0-3.39-1q-1.94.28-3.91,2.81a38.71,38.71,0,0,0-4.29,7.39l.17,6.25c0,.78,0,1.47.05,2.05s0,1.09,0,1.49C424,61.54,424,62.17,424.05,62.5Z" transform="translate(-0.76 -0.83)"/><path class="cls-7" d="M470,39l.05-4.86,4.78.15-.14,28.05q0,.78-.12,1.59a14.19,14.19,0,0,1-.3,1.58,13.93,13.93,0,0,1-3.05,5.84,15.25,15.25,0,0,1-2.61,2.32,14.7,14.7,0,0,1-3.32,1.65,15.58,15.58,0,0,1-4,.81,18.7,18.7,0,0,1-5.56-.61,14.32,14.32,0,0,1-4.64-2.22,9.46,9.46,0,0,1-3.35-4.42l4.72-2a6.83,6.83,0,0,0,2.42,3,8.69,8.69,0,0,0,3.22,1.38,11.17,11.17,0,0,0,3.76.15,10.54,10.54,0,0,0,1.59-.44,9.73,9.73,0,0,0,1.38-.61A10.24,10.24,0,0,0,467,68.73a8.18,8.18,0,0,0,1.43-1.81,10.54,10.54,0,0,0,.47-1c.14-.31.27-.61.38-.9a8.56,8.56,0,0,0,.43-1.6,8.46,8.46,0,0,0,.11-1.11v-3.2a11.81,11.81,0,0,1-3,2.14,16.93,16.93,0,0,1-2.92,1.09c-.52.12-1,.23-1.55.31a13.25,13.25,0,0,1-1.52.15A12.76,12.76,0,0,1,451.25,59a13,13,0,0,1-2.85-4.47,16.14,16.14,0,0,1-1-5.93,14.41,14.41,0,0,1,1.16-5.92,13.82,13.82,0,0,1,3-4.39,13.28,13.28,0,0,1,4.22-2.72,12.55,12.55,0,0,1,4.74-.94,18.53,18.53,0,0,1,3.34.73,20.51,20.51,0,0,1,3.1,1.32A11.61,11.61,0,0,1,470,39Zm-9.25,19.14A9,9,0,0,0,466.65,56a9.45,9.45,0,0,0,2.08-2.4,9.16,9.16,0,0,0,1.17-3.09v-3.2a8.39,8.39,0,0,0-1.15-3.16,9.55,9.55,0,0,0-2.15-2.45,9.17,9.17,0,0,0-6-2.15,7.33,7.33,0,0,0-3.24.72,7.81,7.81,0,0,0-2.55,2,9.77,9.77,0,0,0-1.66,3,11.37,11.37,0,0,0-.61,3.74,10.78,10.78,0,0,0,.61,3.67,8.75,8.75,0,0,0,1.71,2.89,8,8,0,0,0,2.58,1.9A7.81,7.81,0,0,0,460.77,58.15Z" transform="translate(-0.76 -0.83)"/></svg>