<?xml version="1.0" encoding="utf-8"?>
<!-- Generator: Adobe Illustrator 25.0.0, SVG Export Plug-In . SVG Version: 6.00 Build 0)  -->
<svg version="1.1" id="圖層_1" xmlns="http://www.w3.org/2000/svg" xmlns:xlink="http://www.w3.org/1999/xlink" x="0px" y="0px"
	 viewBox="0 0 102 81" style="enable-background:new 0 0 102 81;" xml:space="preserve">
<style type="text/css">
	.st0{fill:#B44F4A;}
	.st1{fill:#64ABBB;stroke:#221714;stroke-miterlimit:10;}
	.st2{fill:#FFFFFF;stroke:#221714;stroke-miterlimit:10;}
	.st3{fill:#573F77;}
	.st4{fill:#D5D53C;stroke:#221714;stroke-miterlimit:10;}
	.st5{fill:none;stroke:#221714;stroke-miterlimit:10;}
</style>
<path class="st0" d="M40.9,10.1C30.7,13.6,19,21.2,2.5,31.3c0.1-0.4,0.2-0.7,0.3-1.1s0.2-0.7,0.3-1s0.3-0.8,0.4-1.1
	c3.5-8,12.9-13,17.4-15.7c10.7-6.5,18.9-7.9,26.4-7.9c4.5,0.1,8.9,0.9,13.1,2.6c0.1,0,0.2,0.1,0.2,0.2C60.3,6.8,51,6.7,40.9,10.1z"
	/>
<path class="st1" d="M61.1,64.8c0,0-20.6-3.4-20.2-17.2c0.1-1.8,2.6,2,9.6,5c3.8,1.7,10.6,2.9,10.6,2.5v-7.3l9.8-0.1
	c-0.1-4.6-0.4-9.2-1-13.7c0,0,8.4-3.7,8.4-14.6c0-9.8-14.1-11.7-16.9-12c-2.7-3.7-6.1-6.2-10.6-6.6c11.6-0.4,23,1.5,33.5,7.4
	c19.7,11,22.2,36,5.2,50.8c-2.2,2-4.7,3.6-7,5.4c3,7,4.7,8.5,15.8,13.9c-3.2,0.5-6,0.9-8.8,1.2c-9.3,1-18.6,2-27.3-3
	c-0.4-0.2-0.8-0.3-1.2-0.3l0,0L61.1,64.8z"/>
<path class="st2" d="M66.2,17c-1.1-3.4-2.7-6.6-4.7-9.5l0,0C63.4,9.4,65,13.4,66.2,17z"/>
<path class="st2" d="M1.1,47.4L1.1,47.4L1.2,48C1.1,47.8,1.1,47.6,1.1,47.4z"/>
<path class="st2" d="M3.6,28.1c-0.2,0.4-0.3,0.8-0.4,1.1c-0.3,0.7-0.5,1.4-0.8,2.2c2.4-8.5,7.7-15.6,16.1-21.3
	c5.9-3.9,12.6-6.7,19.6-8C23.9,5.4,9.4,14.3,3.6,28.1z"/>
<path class="st2" d="M53.3,76.7c-6,0.4-12.1,0.3-18.1-0.4C41.2,76.9,47.3,77.1,53.3,76.7z"/>
<path class="st2" d="M3.3,56.1c0.7,1.8,1.5,3.5,2.5,5.1c-2.6-3.9-4.2-8.4-4.6-13C1.5,50.9,2.2,53.6,3.3,56.1L3.3,56.1z"/>
<path class="st3" d="M70,18c0-5.4-8.5-10.5-8.5-10.5c2.4,0.8,11.4,4.2,12.3,10.8s-4.2,11.2-4.5,11.5c-0.3-1.6-0.6-3.3-1-5
	c0.1,0.2,0.1,0.4,0.1,0.4S70,23.4,70,18z"/>
<path class="st2" d="M0.9,45c0-1-0.1-1.9,0-2.9c0,0.4,0,0.8,0,1.2C0.9,43.8,0.9,44.4,0.9,45z"/>
<path class="st2" d="M0.9,42.1c0-0.2,0-0.4,0-0.6c0-1.2,0.1-2.3,0.2-3.4c0,0.5,0,1-0.1,1.5C0.9,40.4,0.9,41.2,0.9,42.1z"/>
<path class="st2" d="M2.4,31.4L2.4,31.4z"/>
<path class="st2" d="M19.6,72.1c5,2.1,10.3,3.5,15.6,4.2C20.5,74.6,11,69.5,5.8,61.2C9.2,66.1,14,69.9,19.6,72.1z"/>
<path class="st2" d="M38,2.1c3.8-0.9,7.7-1.4,11.7-1.4c0.4,0,0.8,0,1.1,0c-2.4,0.1-4.8,0.2-7.2,0.5C41.8,1.4,39.9,1.7,38,2.1z"/>
<path class="st2" d="M1,39.6c0,0.5,0,1.1,0,1.8s0,1.3-0.1,1.9c0-0.4,0-0.8,0-1.2C0.9,41.2,0.9,40.4,1,39.6z"/>
<path class="st2" d="M2.8,30.2c-0.1,0.4-0.2,0.7-0.3,1.1l-0.1,0.1l0,0l0,0c0.2-0.7,0.5-1.5,0.8-2.2C3,29.5,2.9,29.8,2.8,30.2z"/>
<path class="st4" d="M61.4,7.4h-0.5C56.6,5.6,52,4.6,47.3,4.5c-7.5,0-15.6,1.4-26.4,7.9C16.4,15.1,7,20.1,3.6,28.1
	C9.4,14.3,23.9,5.4,38,2.1c1.8-0.4,3.7-0.7,5.6-0.9C46,1,48.4,0.8,50.8,0.7C55.3,1.1,58.7,3.6,61.4,7.4z"/>
<path class="st2" d="M48.6,24.7c9.2-8.8,12.3-17.4,12.3-17.4l0.6,0.2c2,2.9,3.6,6.1,4.7,9.5c1.1,3.5,1.9,6.7,2.1,7.7
	c0.4,1.7,0.7,3.4,1,5l0,0l0.6,4.1l0,0c0.6,4.5,0.9,9.1,1,13.7l-9.8,0.1V55c0,0.4-6.7-0.8-10.6-2.5c-7-3-9.5-6.8-9.6-5
	c-0.5,13.9,20.2,17.2,20.2,17.2v11.4l0,0c-1.1,0-2.1,0.1-3.1,0.2c-1.5,0.1-3.1,0.3-4.6,0.4c-6,0.4-12.1,0.2-18.1-0.4
	c-5.4-0.7-10.6-2.1-15.6-4.2c-5.6-2.2-10.3-6-13.8-10.9c-1-1.6-1.9-3.3-2.5-5.1C3.7,55.9,25.2,47,48.6,24.7z"/>
<path class="st2" d="M0.9,45c0,0.8,0.1,1.5,0.1,2.3v-0.1C1,46.5,1,45.7,0.9,45z"/>
<path class="st2" d="M1.2,48L1.2,48C1.2,48.1,1.2,48.1,1.2,48z"/>
<path class="st2" d="M0.9,43.2C1,47.6,1.8,51.9,3.3,56l0,0c-1-2.5-1.7-5.2-2.1-7.9V48l-0.1-0.8C1,46.5,1,45.7,1,45
	C0.9,44.4,0.9,43.8,0.9,43.2z"/>
<path class="st2" d="M3.6,28.1c-0.2,0.4-0.3,0.8-0.4,1.1C3.3,28.8,3.4,28.4,3.6,28.1z"/>
<path class="st4" d="M60.6,7.3L60.6,7.3L60.6,7.3z"/>
<path class="st4" d="M1.1,45.1l31.5-22c0,0,28.3-15.4,28-15.8c0.1,0.2,0.2,0.4,0.1,0.6c-2.9,6.3-7,12.1-12.1,16.8
	C25.2,47,3.7,55.9,3.3,56.1C1.8,52.4,1,48.5,1,44.6L1.1,45.1z"/>
<path class="st2" d="M2.4,31.4C1.7,33.5,1.3,35.8,1,38C1.3,33.2,2.2,31.7,2.4,31.4z"/>
<path class="st2" d="M1,39.6c0-0.5,0-1.1,0.1-1.5c0.2-2.3,0.7-4.5,1.3-6.7l0,0C1.6,34.1,1.2,36.8,1,39.6z"/>
<path class="st2" d="M1,39.6c0.2-2.8,0.6-5.5,1.4-8.2l0,0l0.1-0.1C1.7,34.6,1.1,38,1,41.4C1,40.7,1,40.2,1,39.6z"/>
<path class="st4" d="M59.7,7.4c-5.9,5.3-12.2,10.1-18.8,14.3C20.6,34.8,1.1,45.1,1.1,45.1C1,43.7,1,42.5,1,41.4
	c0.2-3.4,0.7-6.8,1.5-10.1C19,21.2,31.3,13.4,41.5,9.9C47.3,7.9,53.5,7,59.7,7.4z"/>
<path class="st4" d="M78.3,19.3c0,10.8-8.4,14.6-8.4,14.6c-0.2-1.3-0.4-2.7-0.6-4.1c0.3-0.2,5.5-4.7,4.5-11.5s-9.9-10-12.3-10.8l0,0
	l-0.1-0.1C64.2,7.6,78.3,9.5,78.3,19.3z"/>
<path class="st2" d="M69.9,33.9l-0.6-4.1l0,0C69.5,31.2,69.7,32.6,69.9,33.9L69.9,33.9z"/>
<path class="st4" d="M70,18c0,5.4-1.6,7.1-1.6,7.1s0-0.1-0.1-0.4c-0.6-2.6-1.3-5.2-2.1-7.7c-1.3-3.3-2.8-6.5-4.7-9.5
	C61.4,7.4,70,12.6,70,18z"/>
<path class="st2" d="M66.2,17c0.9,2.5,1.6,5.1,2.1,7.7C68.1,23.7,67.3,20.5,66.2,17z"/>
<path class="st2" d="M60.3,20.9"/>
<path class="st2" d="M58.3,33c0,4.1-9.2,4.4-9.2,0"/>
<path class="st5" d="M54.5,28.1c0-1.9,2.9-3.4,6.4-3.4"/>
</svg>
