<?xml version="1.0" encoding="utf-8"?>
<!-- Generator: Adobe Illustrator 25.0.0, SVG Export Plug-In . SVG Version: 6.00 Build 0)  -->
<svg version="1.1" id="圖層_1" xmlns="http://www.w3.org/2000/svg" xmlns:xlink="http://www.w3.org/1999/xlink" x="0px" y="0px"
	 viewBox="0 0 1550 1080" style="enable-background:new 0 0 1550 1080;" xml:space="preserve">
<style type="text/css">
	.st0{clip-path:url(#SVGID_2_);}
	.st1{fill:#D9D9D9;}
	.st2{fill:none;stroke:#D9D9D9;stroke-width:2.2;stroke-miterlimit:10;}
	.st3{fill:none;stroke:#D9D9D9;stroke-miterlimit:10;}
	.st4{clip-path:url(#SVGID_4_);}
</style>
<g id="圖層_1_拷貝">
	<g>
		<g>
			<defs>
				<rect id="SVGID_1_" x="36" y="131" width="295" height="295"/>
			</defs>
			<clipPath id="SVGID_2_">
				<use xlink:href="#SVGID_1_"  style="overflow:visible;"/>
			</clipPath>
			<g class="st0">
				<path class="st1" d="M64.6,97L3,158.6v-18.2L46.4,97H64.6 M67,96H46L2,140v21L67,96z"/>
				<path class="st1" d="M20.6,97L3,114.6V97H20.6 M23,96H2v21L23,96z"/>
				<path class="st1" d="M362,269.4v18.2L193.6,456h-18.2L362,269.4 M363,267L173,457h21l169-169V267z"/>
				<path class="st1" d="M362,248.4v18.2L172.6,456h-18.2L362,248.4 M363,246L152,457h21l190-190V246z"/>
				<path class="st1" d="M85.6,97L3,179.6v-18.2L67.4,97H85.6 M88,96H67L2,161v21L88,96z"/>
				<path class="st1" d="M128.6,97L3,222.6v-19.2L109.4,97H128.6 M131,96h-22L2,203v22L131,96z"/>
				<path class="st1" d="M106.6,97L3,200.6v-18.2L88.4,97H106.6 M109,96H88L2,182v21L109,96z"/>
				<path class="st1" d="M43.6,97L3,137.6v-20.2L23.4,97H43.6 M46,96H23L2,117v23L46,96z"/>
				<path class="st1" d="M149.6,97L3,243.6v-18.2L131.4,97H149.6 M152,96h-21L2,225v21L152,96z"/>
				<path class="st1" d="M362,417.4v18.2L341.6,456h-18.2L362,417.4 M363,415l-42,42h21l21-21V415z"/>
				<path class="st1" d="M362,396.4v18.2L320.6,456h-18.2L362,396.4 M363,394l-63,63h21l42-42V394z"/>
				<path class="st1" d="M362,438.4V456h-17.6L362,438.4 M363,436l-21,21h21V436z"/>
				<path class="st1" d="M362,375.4v18.2L299.6,456h-18.2L362,375.4 M363,373l-84,84h21l63-63V373z"/>
				<path class="st1" d="M362,311.4v18.2L235.6,456h-18.2L362,311.4 M363,309L215,457h21l127-127V309z"/>
				<path class="st1" d="M362,353.4v19.2L278.6,456h-19.2L362,353.4 M363,351L257,457h22l84-84V351z"/>
				<path class="st1" d="M362,332.4v18.2L256.6,456h-18.2L362,332.4 M363,330L236,457h21l106-106V330z"/>
				<path class="st1" d="M362,290.4v18.2L214.6,456h-18.2L362,290.4 M363,288L194,457h21l148-148V288z"/>
				<path class="st1" d="M362,163.4v18.2L87.6,456H69.4L362,163.4 M363,161L67,457h21l275-275V161z"/>
				<path class="st1" d="M360.6,97L86.3,371.3L3,454.6v-18.2L342.4,97H360.6 M363,96h-21L2,436v21l85-85L363,96z"/>
				<path class="st1" d="M362,142.4v18.2L66.6,456H48.4L362,142.4 M363,140L46,457h21l296-296V140z"/>
				<path class="st1" d="M362,98.4v20.2L24.6,456H4.4l83.3-83.3L362,98.4 M363,96L87,372L2,457h23l338-338V96z"/>
				<path class="st1" d="M362,121.4v18.2L45.6,456H27.4L362,121.4 M363,119L25,457h21l317-317V119z"/>
				<path class="st1" d="M362,184.4v19.2L109.6,456H90.4L362,184.4 M363,182L88,457h22l253-253V182z"/>
				<path class="st1" d="M362,227.4v18.2L151.6,456h-18.2L362,227.4 M363,225L131,457h21l211-211V225z"/>
				<path class="st1" d="M362,206.4v18.2L130.6,456h-18.2L362,206.4 M363,204L110,457h21l232-232V204z"/>
				<path class="st1" d="M191.6,97L3,285.6v-18.2L173.4,97H191.6 M194,96h-21L2,267v21L194,96z"/>
				<path class="st1" d="M339.6,97L3,433.6v-18.2L321.4,97H339.6 M342,96h-21L2,415v21L342,96z"/>
				<path class="st1" d="M254.6,97L3,348.6v-18.2L236.4,97H254.6 M257,96h-21L2,330v21L257,96z"/>
				<path class="st1" d="M233.6,97L3,327.6v-18.2L215.4,97H233.6 M236,96h-21L2,309v21L236,96z"/>
				<path class="st1" d="M170.6,97L3,264.6v-18.2L152.4,97H170.6 M173,96h-21L2,246v21L173,96z"/>
				<path class="st1" d="M212.6,97L3,306.6v-18.2L194.4,97H212.6 M215,96h-21L2,288v21L215,96z"/>
				<path class="st1" d="M318.6,97L3,412.6v-18.2L300.4,97H318.6 M321,96h-21L2,394v21L321,96z"/>
				<path class="st1" d="M297.6,97L3,391.6v-19.2L278.4,97H297.6 M300,96h-22L2,372v22L300,96z"/>
				<path class="st1" d="M275.6,97L3,369.6v-18.2L257.4,97H275.6 M278,96h-21L2,351v21L278,96z"/>
			</g>
		</g>
	</g>
</g>
<g id="圖層_3">
	<line class="st2" x1="183.4" y1="426.2" x2="183.4" y2="1080"/>
	<line class="st3" x1="182.4" y1="426.2" x2="182.4" y2="1080"/>
	<line class="st2" x1="183" y1="0.4" x2="183" y2="131.3"/>
	<line class="st3" x1="182.8" y1="0.4" x2="182.8" y2="131.3"/>
</g>
<g id="圖層_1_拷貝_1_">
	<g>
		<g>
			<defs>
				<rect id="SVGID_3_" x="1219" y="654" width="295" height="295"/>
			</defs>
			<clipPath id="SVGID_4_">
				<use xlink:href="#SVGID_3_"  style="overflow:visible;"/>
			</clipPath>
			<g class="st4">
				<path class="st1" d="M1485.4,983l61.6-61.6v18.2l-43.4,43.4H1485.4 M1483,984h21l44-44v-21L1483,984z"/>
				<path class="st1" d="M1529.4,983l17.6-17.6V983H1529.4 M1527,984h21v-21L1527,984z"/>
				<path class="st1" d="M1188,810.6v-18.2L1356.4,624h18.2L1188,810.6 M1187,813l190-190h-21l-169,169V813z"/>
				<path class="st1" d="M1188,831.6v-18.2L1377.4,624h18.2L1188,831.6 M1187,834l211-211h-21l-190,190V834z"/>
				<path class="st1" d="M1464.4,983l82.6-82.6v18.2l-64.4,64.4H1464.4 M1462,984h21l65-65v-21L1462,984z"/>
				<path class="st1" d="M1421.4,983L1547,857.4v19.2L1440.6,983H1421.4 M1419,984h22l107-107v-22L1419,984z"/>
				<path class="st1" d="M1443.4,983L1547,879.4v18.2l-85.4,85.4H1443.4 M1441,984h21l86-86v-21L1441,984z"/>
				<path class="st1" d="M1506.4,983l40.6-40.6v20.2l-20.4,20.4H1506.4 M1504,984h23l21-21v-23L1504,984z"/>
				<path class="st1" d="M1400.4,983L1547,836.4v18.2L1418.6,983H1400.4 M1398,984h21l129-129v-21L1398,984z"/>
				<path class="st1" d="M1188,662.6v-18.2l20.4-20.4h18.2L1188,662.6 M1187,665l42-42h-21l-21,21V665z"/>
				<path class="st1" d="M1188,683.6v-18.2l41.4-41.4h18.2L1188,683.6 M1187,686l63-63h-21l-42,42V686z"/>
				<path class="st1" d="M1188,641.6V624h17.6L1188,641.6 M1187,644l21-21h-21V644z"/>
				<path class="st1" d="M1188,704.6v-18.2l62.4-62.4h18.2L1188,704.6 M1187,707l84-84h-21l-63,63V707z"/>
				<path class="st1" d="M1188,768.6v-18.2L1314.4,624h18.2L1188,768.6 M1187,771l148-148h-21l-127,127V771z"/>
				<path class="st1" d="M1188,726.6v-19.2l83.4-83.4h19.2L1188,726.6 M1187,729l106-106h-22l-84,84V729z"/>
				<path class="st1" d="M1188,747.6v-18.2L1293.4,624h18.2L1188,747.6 M1187,750l127-127h-21l-106,106V750z"/>
				<path class="st1" d="M1188,789.6v-18.2L1335.4,624h18.2L1188,789.6 M1187,792l169-169h-21l-148,148V792z"/>
				<path class="st1" d="M1188,916.6v-18.2L1462.4,624h18.2L1188,916.6 M1187,919l296-296h-21l-275,275V919z"/>
				<path class="st1" d="M1189.4,983l274.3-274.3l83.3-83.3v18.2L1207.6,983H1189.4 M1187,984h21l340-340v-21l-85,85L1187,984z"/>
				<path class="st1" d="M1188,937.6v-18.2L1483.4,624h18.2L1188,937.6 M1187,940l317-317h-21l-296,296V940z"/>
				<path class="st1" d="M1188,981.6v-20.2L1525.4,624h20.2l-83.3,83.3L1188,981.6 M1187,984l276-276l85-85h-23l-338,338V984z"/>
				<path class="st1" d="M1188,958.6v-18.2L1504.4,624h18.2L1188,958.6 M1187,961l338-338h-21l-317,317V961z"/>
				<path class="st1" d="M1188,895.6v-19.2L1440.4,624h19.2L1188,895.6 M1187,898l275-275h-22l-253,253V898z"/>
				<path class="st1" d="M1188,852.6v-18.2L1398.4,624h18.2L1188,852.6 M1187,855l232-232h-21l-211,211V855z"/>
				<path class="st1" d="M1188,873.6v-18.2L1419.4,624h18.2L1188,873.6 M1187,876l253-253h-21l-232,232V876z"/>
				<path class="st1" d="M1358.4,983L1547,794.4v18.2L1376.6,983H1358.4 M1356,984h21l171-171v-21L1356,984z"/>
				<path class="st1" d="M1210.4,983L1547,646.4v18.2L1228.6,983H1210.4 M1208,984h21l319-319v-21L1208,984z"/>
				<path class="st1" d="M1295.4,983L1547,731.4v18.2L1313.6,983H1295.4 M1293,984h21l234-234v-21L1293,984z"/>
				<path class="st1" d="M1316.4,983L1547,752.4v18.2L1334.6,983H1316.4 M1314,984h21l213-213v-21L1314,984z"/>
				<path class="st1" d="M1379.4,983L1547,815.4v18.2L1397.6,983H1379.4 M1377,984h21l150-150v-21L1377,984z"/>
				<path class="st1" d="M1337.4,983L1547,773.4v18.2L1355.6,983H1337.4 M1335,984h21l192-192v-21L1335,984z"/>
				<path class="st1" d="M1231.4,983L1547,667.4v18.2L1249.6,983H1231.4 M1229,984h21l298-298v-21L1229,984z"/>
				<path class="st1" d="M1252.4,983L1547,688.4v19.2L1271.6,983H1252.4 M1250,984h22l276-276v-22L1250,984z"/>
				<path class="st1" d="M1274.4,983L1547,710.4v18.2L1292.6,983H1274.4 M1272,984h21l255-255v-21L1272,984z"/>
			</g>
		</g>
	</g>
</g>
<g id="圖層_3_1_">
	<line class="st2" x1="1366.6" y1="653.8" x2="1366.6" y2="0"/>
	<line class="st3" x1="1367.6" y1="653.8" x2="1367.6" y2="0"/>
	<line class="st2" x1="1367" y1="1079.6" x2="1367" y2="948.7"/>
	<line class="st3" x1="1367.2" y1="1079.6" x2="1367.2" y2="948.7"/>
</g>
</svg>
