<?xml version="1.0" encoding="utf-8"?>
<!-- Generator: Adobe Illustrator 25.0.0, SVG Export Plug-In . SVG Version: 6.00 Build 0)  -->
<svg version="1.1" id="圖層_1" xmlns="http://www.w3.org/2000/svg" xmlns:xlink="http://www.w3.org/1999/xlink" x="0px" y="0px"
	 viewBox="0 0 1546 1080" style="enable-background:new 0 0 1546 1080;" xml:space="preserve">
<style type="text/css">
	.st0{clip-path:url(#SVGID_2_);}
	.st1{fill:#D9D9D9;}
	.st2{clip-path:url(#SVGID_4_);}
	.st3{fill:none;stroke:#D9D9D9;stroke-width:2.2;stroke-miterlimit:10;}
	.st4{fill:none;stroke:#D9D9D9;stroke-miterlimit:10;}
</style>
<g id="圖層_1_拷貝">
	<g>
		<defs>
			<rect id="SVGID_1_" x="34" y="131" width="295" height="295"/>
		</defs>
		<clipPath id="SVGID_2_">
			<use xlink:href="#SVGID_1_"  style="overflow:visible;"/>
		</clipPath>
		<g class="st0">
			<path class="st1" d="M62.6,97L1,158.6v-18.2L44.4,97H62.6 M65,96H44L0,140v21L65,96z"/>
			<path class="st1" d="M18.6,97L1,114.6V97H18.6 M21,96H0v21L21,96z"/>
			<path class="st1" d="M360,269.4v18.2L191.6,456h-18.2L360,269.4 M361,267L171,457h21l169-169V267z"/>
			<path class="st1" d="M360,248.4v18.2L170.6,456h-18.2L360,248.4 M361,246L150,457h21l190-190V246z"/>
			<path class="st1" d="M83.6,97L1,179.6v-18.2L65.4,97H83.6 M86,96H65L0,161v21L86,96z"/>
			<path class="st1" d="M126.6,97L1,222.6v-19.2L107.4,97H126.6 M129,96h-22L0,203v22L129,96z"/>
			<path class="st1" d="M104.6,97L1,200.6v-18.2L86.4,97H104.6 M107,96H86L0,182v21L107,96z"/>
			<path class="st1" d="M41.6,97L1,137.6v-20.2L21.4,97H41.6 M44,96H21L0,117v23L44,96z"/>
			<path class="st1" d="M147.6,97L1,243.6v-18.2L129.4,97H147.6 M150,96h-21L0,225v21L150,96z"/>
			<path class="st1" d="M360,417.4v18.2L339.6,456h-18.2L360,417.4 M361,415l-42,42h21l21-21V415z"/>
			<path class="st1" d="M360,396.4v18.2L318.6,456h-18.2L360,396.4 M361,394l-63,63h21l42-42V394z"/>
			<path class="st1" d="M360,438.4V456h-17.6L360,438.4 M361,436l-21,21h21V436z"/>
			<path class="st1" d="M360,375.4v18.2L297.6,456h-18.2L360,375.4 M361,373l-84,84h21l63-63V373z"/>
			<path class="st1" d="M360,311.4v18.2L233.6,456h-18.2L360,311.4 M361,309L213,457h21l127-127V309z"/>
			<path class="st1" d="M360,353.4v19.2L276.6,456h-19.2L360,353.4 M361,351L255,457h22l84-84V351z"/>
			<path class="st1" d="M360,332.4v18.2L254.6,456h-18.2L360,332.4 M361,330L234,457h21l106-106V330z"/>
			<path class="st1" d="M360,290.4v18.2L212.6,456h-18.2L360,290.4 M361,288L192,457h21l148-148V288z"/>
			<path class="st1" d="M360,163.4v18.2L85.6,456H67.4L360,163.4 M361,161L65,457h21l275-275V161z"/>
			<path class="st1" d="M358.6,97L84.3,371.3L1,454.6v-18.2L340.4,97H358.6 M361,96h-21L0,436v21l85-85L361,96z"/>
			<path class="st1" d="M360,142.4v18.2L64.6,456H46.4L360,142.4 M361,140L44,457h21l296-296V140z"/>
			<path class="st1" d="M360,98.4v20.2L22.6,456H2.4l83.3-83.3L360,98.4 M361,96L85,372L0,457h23l338-338V96z"/>
			<path class="st1" d="M360,121.4v18.2L43.6,456H25.4L360,121.4 M361,119L23,457h21l317-317V119z"/>
			<path class="st1" d="M360,184.4v19.2L107.6,456H88.4L360,184.4 M361,182L86,457h22l253-253V182z"/>
			<path class="st1" d="M360,227.4v18.2L149.6,456h-18.2L360,227.4 M361,225L129,457h21l211-211V225z"/>
			<path class="st1" d="M360,206.4v18.2L128.6,456h-18.2L360,206.4 M361,204L108,457h21l232-232V204z"/>
			<path class="st1" d="M189.6,97L1,285.6v-18.2L171.4,97H189.6 M192,96h-21L0,267v21L192,96z"/>
			<path class="st1" d="M337.6,97L1,433.6v-18.2L319.4,97H337.6 M340,96h-21L0,415v21L340,96z"/>
			<path class="st1" d="M252.6,97L1,348.6v-18.2L234.4,97H252.6 M255,96h-21L0,330v21L255,96z"/>
			<path class="st1" d="M231.6,97L1,327.6v-18.2L213.4,97H231.6 M234,96h-21L0,309v21L234,96z"/>
			<path class="st1" d="M168.6,97L1,264.6v-18.2L150.4,97H168.6 M171,96h-21L0,246v21L171,96z"/>
			<path class="st1" d="M210.6,97L1,306.6v-18.2L192.4,97H210.6 M213,96h-21L0,288v21L213,96z"/>
			<path class="st1" d="M316.6,97L1,412.6v-18.2L298.4,97H316.6 M319,96h-21L0,394v21L319,96z"/>
			<path class="st1" d="M295.6,97L1,391.6v-19.2L276.4,97H295.6 M298,96h-22L0,372v22L298,96z"/>
			<path class="st1" d="M273.6,97L1,369.6v-18.2L255.4,97H273.6 M276,96h-21L0,351v21L276,96z"/>
		</g>
	</g>
</g>
<g id="圖層_1_1_">
	<g>
		<defs>
			<rect id="SVGID_3_" x="1219" y="661" width="295" height="295"/>
		</defs>
		<clipPath id="SVGID_4_">
			<use xlink:href="#SVGID_3_"  style="overflow:visible;"/>
		</clipPath>
		<g class="st2">
			<path class="st1" d="M1247.6,627l-61.6,61.6v-18.2l43.4-43.4H1247.6 M1250,626h-21l-44,44v21L1250,626z"/>
			<path class="st1" d="M1203.6,627l-17.6,17.6V627H1203.6 M1206,626h-21v21L1206,626z"/>
			<path class="st1" d="M1545,799.4v18.2L1376.6,986h-18.2L1545,799.4 M1546,797l-190,190h21l169-169V797z"/>
			<path class="st1" d="M1545,778.4v18.2L1355.6,986h-18.2L1545,778.4 M1546,776l-211,211h21l190-190V776z"/>
			<path class="st1" d="M1268.6,627l-82.6,82.6v-18.2l64.4-64.4H1268.6 M1271,626h-21l-65,65v21L1271,626z"/>
			<path class="st1" d="M1311.6,627L1186,752.6v-19.2L1292.4,627H1311.6 M1314,626h-22l-107,107v22L1314,626L1314,626z"/>
			<path class="st1" d="M1289.6,627L1186,730.6v-18.2l85.4-85.4H1289.6 M1292,626h-21l-86,86v21L1292,626z"/>
			<path class="st1" d="M1226.6,627l-40.6,40.6v-20.2l20.4-20.4H1226.6 M1229,626h-23l-21,21v23L1229,626z"/>
			<path class="st1" d="M1332.6,627L1186,773.6v-18.2L1314.4,627H1332.6 M1335,626h-21l-129,129v21L1335,626L1335,626z"/>
			<path class="st1" d="M1545,947.4v18.2l-20.4,20.4h-18.2L1545,947.4 M1546,945l-42,42h21l21-21V945z"/>
			<path class="st1" d="M1545,926.4v18.2l-41.4,41.4h-18.2L1545,926.4 M1546,924l-63,63h21l42-42V924z"/>
			<path class="st1" d="M1545,968.4V986h-17.6L1545,968.4 M1546,966l-21,21h21V966z"/>
			<path class="st1" d="M1545,905.4v18.2l-62.4,62.4h-18.2L1545,905.4 M1546,903l-84,84h21l63-63V903z"/>
			<path class="st1" d="M1545,841.4v18.2L1418.6,986h-18.2L1545,841.4 M1546,839l-148,148h21l127-127V839z"/>
			<path class="st1" d="M1545,883.4v19.2l-83.4,83.4h-19.2L1545,883.4 M1546,881l-106,106h22l84-84V881z"/>
			<path class="st1" d="M1545,862.4v18.2L1439.6,986h-18.2L1545,862.4 M1546,860l-127,127h21l106-106V860z"/>
			<path class="st1" d="M1545,820.4v18.2L1397.6,986h-18.2L1545,820.4 M1546,818l-169,169h21l148-148V818z"/>
			<path class="st1" d="M1545,693.4v18.2L1270.6,986h-18.2L1545,693.4 M1546,691l-296,296h21l275-275V691z"/>
			<path class="st1" d="M1543.6,627l-274.3,274.3l-83.3,83.3v-18.2L1525.4,627H1543.6 M1546,626h-21l-340,340v21l85-85L1546,626
				L1546,626z"/>
			<path class="st1" d="M1545,672.4v18.2L1249.6,986h-18.2L1545,672.4 M1546,670l-317,317h21l296-296V670z"/>
			<path class="st1" d="M1545,628.4v20.2L1207.6,986h-20.2l83.3-83.3L1545,628.4 M1546,626l-276,276l-85,85h23l338-338V626z"/>
			<path class="st1" d="M1545,651.4v18.2L1228.6,986h-18.2L1545,651.4 M1546,649l-338,338h21l317-317V649z"/>
			<path class="st1" d="M1545,714.4v19.2L1292.6,986h-19.2L1545,714.4 M1546,712l-275,275h22l253-253V712z"/>
			<path class="st1" d="M1545,757.4v18.2L1334.6,986h-18.2L1545,757.4 M1546,755l-232,232h21l211-211V755z"/>
			<path class="st1" d="M1545,736.4v18.2L1313.6,986h-18.2L1545,736.4 M1546,734l-253,253h21l232-232V734z"/>
			<path class="st1" d="M1374.6,627L1186,815.6v-18.2L1356.4,627H1374.6 M1377,626h-21l-171,171v21L1377,626L1377,626z"/>
			<path class="st1" d="M1522.6,627L1186,963.6v-18.2L1504.4,627H1522.6 M1525,626h-21l-319,319v21L1525,626L1525,626z"/>
			<path class="st1" d="M1437.6,627L1186,878.6v-18.2L1419.4,627H1437.6 M1440,626h-21l-234,234v21L1440,626L1440,626z"/>
			<path class="st1" d="M1416.6,627L1186,857.6v-18.2L1398.4,627H1416.6 M1419,626h-21l-213,213v21L1419,626L1419,626z"/>
			<path class="st1" d="M1353.6,627L1186,794.6v-18.2L1335.4,627H1353.6 M1356,626h-21l-150,150v21L1356,626L1356,626z"/>
			<path class="st1" d="M1395.6,627L1186,836.6v-18.2L1377.4,627H1395.6 M1398,626h-21l-192,192v21L1398,626L1398,626z"/>
			<path class="st1" d="M1501.6,627L1186,942.6v-18.2L1483.4,627H1501.6 M1504,626h-21l-298,298v21L1504,626L1504,626z"/>
			<path class="st1" d="M1480.6,627L1186,921.6v-19.2L1461.4,627H1480.6 M1483,626h-22l-276,276v22L1483,626L1483,626z"/>
			<path class="st1" d="M1458.6,627L1186,899.6v-18.2L1440.4,627H1458.6 M1461,626h-21l-255,255v21L1461,626L1461,626z"/>
		</g>
	</g>
</g>
<g id="圖層_3">
	<line class="st3" x1="181.4" y1="426.2" x2="181.4" y2="1080"/>
	<line class="st4" x1="180.4" y1="426.2" x2="180.4" y2="1080"/>
	<line class="st3" x1="1388" y1="0.4" x2="1388" y2="661.1"/>
	<line class="st4" x1="1387" y1="0.4" x2="1387" y2="661.1"/>
	<line class="st3" x1="1386.7" y1="956" x2="1386.7" y2="1080"/>
	<line class="st4" x1="1386.3" y1="956" x2="1386.3" y2="1080"/>
	<line class="st3" x1="181" y1="0.4" x2="181" y2="131.3"/>
	<line class="st4" x1="180.8" y1="0.4" x2="180.8" y2="131.3"/>
</g>
</svg>
